# xmcd CD database file
#
# Track frame offsets:
#	150
#	28967
#	43417
#	59332
#	76877
#	98745
#	111457
#	130960
#	143335
#	158010
#	171847
#	186125
#	196557
#	214307
#	224100
#	244392
#
# Disc length: 3573 seconds
#
# Revision: 0
# Processed by: cddbd v1.4b41PL2 Copyright (c) Steve Scherf et al.
# Submitted via: Feurio! 1.61 - http://www.feurio.com
#
DISCID=ef0df310
DTITLE=The Cropdusters - If The Sober Go To Heaven...
DYEAR=1900
DGENRE=
TTITLE0=Yesterday's Cakes
TTITLE1=Just Poppin' Out To Fight A War (Original Version)
TTITLE2=Coyote
TTITLE3=Hard Times
TTITLE4=Banjo Hill
TTITLE5=You Were The Pilot
TTITLE6=Gold Against The Soul
TTITLE7=Oliver Reed (Goes To Salt Creek)
TTITLE8=Jammot O'Reilly
TTITLE9=Just Poppin' Out To Fight A War 
TTITLE10=Can't Slowdown On The Old Hoedown
TTITLE11=Alligator Come Across
TTITLE12=Proverb
TTITLE13=Mason's Apron - Lannigan's Ball
TTITLE14=John Henry
TTITLE15=Southern Life
EXTD=
EXTT0=
EXTT1=
EXTT2=
EXTT3=
EXTT4=
EXTT5=
EXTT6=
EXTT7=
EXTT8=
EXTT9=
EXTT10=
EXTT11=
EXTT12=
EXTT13=
EXTT14=
EXTT15=
PLAYORDER=
